# xmcd CD database file
#
# Track frame offsets:
#	150
#	49847
#	79632
#	101912
#	126517
#	158535
#	195672
#	228640
#	248692
#	272807
#	288940
#
# Disc length: 4217 seconds
#
# Revision: 0
# Processed by: cddbd v1.5.1PL2 Copyright (c) Steve Scherf et al.
# Submitted via: CDex 1.51
#
DISCID=9710770b
DTITLE=Various Artist - MODERN JAZZ(1)
DYEAR=1900
DGENRE=Jazz
TTITLE0=Autumn leaves - Cannonball Adderley and Miles Davis
TTITLE1=Softly As In A Morning Sunrise - Sonny Clerk
TTITLE2=My Foolish Heart - Bill Evans
TTITLE3=You'd Be So Nice To Come Home To - Art Pepper
TTITLE4=Diango - The Modern Jazz Quartet(M.J.Q.)
TTITLE5=Recado Bossa Nova - Hank Mobley
TTITLE6=Song For My Father - Horace Silver
TTITLE7=Cleopatra's Dream - Bud Powell
TTITLE8=Five Spot After Dark - Curtis Fuller
TTITLE9=My Funny Valentine - Sonny Stitt
TTITLE10=Left Alone - Mal Waldron
EXTD=
EXTT0=
EXTT1=
EXTT2=
EXTT3=
EXTT4=
EXTT5=
EXTT6=
EXTT7=
EXTT8=
EXTT9=
EXTT10=
PLAYORDER=
